<svg width="312" height="80" viewBox="0 0 312 80" fill="none" xmlns="http://www.w3.org/2000/svg">
<g clip-path="url(#clip0_636_1584)">
<path d="M4.44434 4.44446H67.4073V75.5556H4.44434V4.44446Z" fill="white"/>
<path fill-rule="evenodd" clip-rule="evenodd" d="M0 0H71.8519V80H0V0ZM8.88889 8.88889V71.1111H62.963V8.88889H8.88889Z" fill="#1C0049"/>
<path fill-rule="evenodd" clip-rule="evenodd" d="M37.0373 14.0741H28.1484V51.1111H37.0373H57.7781V42.2222H37.0373V37.037H57.7781V28.1481H37.0373V22.963H57.7781V14.0741H37.0373Z" fill="#1C0049"/>
<path d="M62.9627 8.88889H8.88867V14.0741H62.9627V8.88889Z" fill="white"/>
<path d="M57.7779 37.037H37.0371V42.2222H57.7779V37.037Z" fill="white"/>
<path d="M57.7779 22.963H37.0371V28.1481H57.7779V22.963Z" fill="white"/>
<path d="M14.0739 14.0741H8.88867V65.1852H14.0739V14.0741Z" fill="white"/>
<path d="M28.1481 14.0741H22.9629V56.2963H28.1481V14.0741Z" fill="white"/>
<path d="M62.9625 14.0741H57.7773V71.1111H62.9625V14.0741Z" fill="white"/>
<path d="M57.7781 51.1111H28.1484V56.2963H57.7781V51.1111Z" fill="white"/>
<path d="M57.7776 65.1852H8.88867V71.1111H57.7776V65.1852Z" fill="white"/>
<mask id="mask0_636_1584" style="mask-type:alpha" maskUnits="userSpaceOnUse" x="14" y="14" width="44" height="52">
<path fill-rule="evenodd" clip-rule="evenodd" d="M22.9631 14.0741H14.0742V65.1852H22.9631H57.7779V56.2963H22.9631V14.0741Z" fill="white"/>
</mask>
<g mask="url(#mask0_636_1584)">
<path fill-rule="evenodd" clip-rule="evenodd" d="M22.8889 14H14V65.1111H22.8889H57.7037V56.2222H22.8889V14Z" fill="#FD9319"/>
<path d="M14.0737 14.0741V13.3333H13.333V14.0741H14.0737ZM22.9626 14.0741H23.7034V13.3333H22.9626V14.0741ZM14.0737 65.1852H13.333V65.9259H14.0737V65.1852ZM57.7775 65.1852V65.9259H58.5182V65.1852H57.7775ZM57.7775 56.2963H58.5182V55.5556H57.7775V56.2963ZM22.9626 56.2963H22.2219V57.037H22.9626V56.2963ZM14.0737 14.8148H22.9626V13.3333H14.0737V14.8148ZM14.8145 65.1852V14.0741H13.333V65.1852H14.8145ZM22.9626 64.4445H14.0737V65.9259H22.9626V64.4445ZM57.7775 64.4445H22.9626V65.9259H57.7775V64.4445ZM57.0367 56.2963V65.1852H58.5182V56.2963H57.0367ZM22.9626 57.037H57.7775V55.5556H22.9626V57.037ZM22.2219 14.0741V56.2963H23.7034V14.0741H22.2219Z" fill="black"/>
</g>
</g>
<path d="M97.8027 27.8965C99.0684 27.8965 100.158 28.1191 101.072 28.5645C101.998 28.998 102.707 29.625 103.199 30.4453C103.703 31.2656 103.955 32.2559 103.955 33.416C103.955 34.9395 103.457 36.2285 102.461 37.2832C101.477 38.3379 100.223 39.2988 98.6992 40.166L105.836 47.0918C106.48 46.3418 107.008 45.4746 107.418 44.4902C107.828 43.4941 108.174 42.416 108.455 41.2559H111.408C111.033 42.8027 110.547 44.2266 109.949 45.5273C109.363 46.8281 108.625 47.9707 107.734 48.9551L112.885 54H108.93L105.748 50.8887C104.998 51.5801 104.189 52.1895 103.322 52.7168C102.467 53.2324 101.512 53.6367 100.457 53.9297C99.4141 54.2109 98.2188 54.3516 96.8711 54.3516C95.2305 54.3516 93.8066 54.082 92.5996 53.543C91.3926 53.0039 90.4551 52.2129 89.7871 51.1699C89.1309 50.127 88.8027 48.8496 88.8027 47.3379C88.8027 46.0957 89.0312 45.0293 89.4883 44.1387C89.9453 43.248 90.5957 42.457 91.4395 41.7656C92.2832 41.0742 93.291 40.4004 94.4629 39.7441C93.9121 39.1348 93.3906 38.5195 92.8984 37.8984C92.4062 37.2656 92.0078 36.5918 91.7031 35.877C91.3984 35.1504 91.2461 34.3535 91.2461 33.4863C91.2461 32.3145 91.5098 31.3125 92.0371 30.4805C92.5762 29.6484 93.332 29.0098 94.3047 28.5645C95.2891 28.1191 96.4551 27.8965 97.8027 27.8965ZM96.2207 41.5898C95.3066 42.1172 94.5215 42.6387 93.8652 43.1543C93.2207 43.6699 92.7227 44.25 92.3711 44.8945C92.0312 45.5391 91.8613 46.3184 91.8613 47.2324C91.8613 48.6035 92.3242 49.7051 93.25 50.5371C94.1758 51.3574 95.4121 51.7676 96.959 51.7676C98.5527 51.7676 99.9062 51.5039 101.02 50.9766C102.145 50.4492 103.1 49.8105 103.885 49.0605L96.2207 41.5898ZM97.6973 30.3047C96.6309 30.3047 95.7637 30.5859 95.0957 31.1484C94.4395 31.6992 94.1113 32.4727 94.1113 33.4688C94.1113 34.3594 94.3516 35.1797 94.832 35.9297C95.3125 36.6797 95.998 37.5117 96.8887 38.4258C98.3535 37.6172 99.4141 36.8379 100.07 36.0879C100.738 35.3262 101.072 34.4355 101.072 33.416C101.072 32.4902 100.762 31.7402 100.141 31.166C99.5312 30.5918 98.7168 30.3047 97.6973 30.3047Z" fill="#2E3337"/>
<mask id="path-16-inside-1_636_1584" fill="white">
<path d="M124.629 28V2.30078H131.572V22.3926H141.469V28H124.629ZM152.086 8.08398V28H145.213V8.08398H152.086ZM148.676 0.0683594C149.66 0.0683594 150.516 0.273438 151.242 0.683594C151.98 1.09375 152.35 1.9082 152.35 3.12695C152.35 4.31055 151.98 5.11328 151.242 5.53516C150.516 5.94531 149.66 6.15039 148.676 6.15039C147.668 6.15039 146.807 5.94531 146.092 5.53516C145.389 5.11328 145.037 4.31055 145.037 3.12695C145.037 1.9082 145.389 1.09375 146.092 0.683594C146.807 0.273438 147.668 0.0683594 148.676 0.0683594ZM169.049 13.2344H164.812V28H157.939V13.2344H155.303V9.85938L158.08 8.17188V7.83789C158.08 6.11523 158.309 4.71484 158.766 3.63672C159.223 2.54688 159.949 1.74414 160.945 1.22852C161.941 0.712891 163.242 0.455078 164.848 0.455078C165.879 0.455078 166.811 0.537109 167.643 0.701172C168.486 0.865234 169.365 1.09961 170.279 1.4043L168.803 5.85156C168.463 5.75781 168.082 5.67578 167.66 5.60547C167.25 5.53516 166.805 5.5 166.324 5.5C165.797 5.5 165.41 5.66406 165.164 5.99219C164.93 6.30859 164.812 6.83008 164.812 7.55664V8.08398H169.049V13.2344ZM181.512 22.9199C182.133 22.9199 182.701 22.8555 183.217 22.7266C183.732 22.5977 184.271 22.4336 184.834 22.2344V27.2441C184.084 27.5723 183.287 27.8359 182.443 28.0352C181.611 28.2461 180.545 28.3516 179.244 28.3516C177.955 28.3516 176.818 28.1523 175.834 27.7539C174.85 27.3438 174.082 26.6406 173.531 25.6445C172.992 24.6367 172.723 23.2363 172.723 21.4434V13.2344H170.314V10.4395L173.373 8.27734L175.148 4.09375H179.648V8.08398H184.535V13.2344H179.648V20.9863C179.648 21.6309 179.812 22.1172 180.141 22.4453C180.469 22.7617 180.926 22.9199 181.512 22.9199ZM203.115 21.8828C203.115 23.1484 202.834 24.2676 202.271 25.2402C201.709 26.2129 200.807 26.9746 199.564 27.5254C198.334 28.0762 196.711 28.3516 194.695 28.3516C193.277 28.3516 192.006 28.2754 190.881 28.123C189.768 27.9707 188.637 27.6777 187.488 27.2441V21.7422C188.742 22.3164 190.02 22.7324 191.32 22.9902C192.621 23.2363 193.646 23.3594 194.396 23.3594C195.17 23.3594 195.732 23.2773 196.084 23.1133C196.447 22.9375 196.629 22.6797 196.629 22.3398C196.629 22.0469 196.506 21.8008 196.26 21.6016C196.025 21.3906 195.598 21.1504 194.977 20.8809C194.367 20.6113 193.506 20.248 192.393 19.791C191.291 19.334 190.371 18.8359 189.633 18.2969C188.906 17.7578 188.361 17.1133 187.998 16.3633C187.635 15.6133 187.453 14.6934 187.453 13.6035C187.453 11.6582 188.203 10.1934 189.703 9.20898C191.203 8.22461 193.189 7.73242 195.662 7.73242C196.975 7.73242 198.211 7.87891 199.371 8.17188C200.531 8.45312 201.732 8.86914 202.975 9.41992L201.094 13.8496C200.109 13.4043 199.113 13.0469 198.105 12.7773C197.098 12.5078 196.295 12.373 195.697 12.373C195.158 12.373 194.742 12.4434 194.449 12.584C194.156 12.7246 194.01 12.9297 194.01 13.1992C194.01 13.4453 194.109 13.6621 194.309 13.8496C194.52 14.0371 194.912 14.2539 195.486 14.5C196.061 14.7461 196.898 15.0918 198 15.5371C199.16 16.0059 200.115 16.5098 200.865 17.0488C201.627 17.5762 202.189 18.2207 202.553 18.9824C202.928 19.7441 203.115 20.7109 203.115 21.8828Z"/>
</mask>
<path d="M124.629 28V2.30078H131.572V22.3926H141.469V28H124.629ZM152.086 8.08398V28H145.213V8.08398H152.086ZM148.676 0.0683594C149.66 0.0683594 150.516 0.273438 151.242 0.683594C151.98 1.09375 152.35 1.9082 152.35 3.12695C152.35 4.31055 151.98 5.11328 151.242 5.53516C150.516 5.94531 149.66 6.15039 148.676 6.15039C147.668 6.15039 146.807 5.94531 146.092 5.53516C145.389 5.11328 145.037 4.31055 145.037 3.12695C145.037 1.9082 145.389 1.09375 146.092 0.683594C146.807 0.273438 147.668 0.0683594 148.676 0.0683594ZM169.049 13.2344H164.812V28H157.939V13.2344H155.303V9.85938L158.08 8.17188V7.83789C158.08 6.11523 158.309 4.71484 158.766 3.63672C159.223 2.54688 159.949 1.74414 160.945 1.22852C161.941 0.712891 163.242 0.455078 164.848 0.455078C165.879 0.455078 166.811 0.537109 167.643 0.701172C168.486 0.865234 169.365 1.09961 170.279 1.4043L168.803 5.85156C168.463 5.75781 168.082 5.67578 167.66 5.60547C167.25 5.53516 166.805 5.5 166.324 5.5C165.797 5.5 165.41 5.66406 165.164 5.99219C164.93 6.30859 164.812 6.83008 164.812 7.55664V8.08398H169.049V13.2344ZM181.512 22.9199C182.133 22.9199 182.701 22.8555 183.217 22.7266C183.732 22.5977 184.271 22.4336 184.834 22.2344V27.2441C184.084 27.5723 183.287 27.8359 182.443 28.0352C181.611 28.2461 180.545 28.3516 179.244 28.3516C177.955 28.3516 176.818 28.1523 175.834 27.7539C174.85 27.3438 174.082 26.6406 173.531 25.6445C172.992 24.6367 172.723 23.2363 172.723 21.4434V13.2344H170.314V10.4395L173.373 8.27734L175.148 4.09375H179.648V8.08398H184.535V13.2344H179.648V20.9863C179.648 21.6309 179.812 22.1172 180.141 22.4453C180.469 22.7617 180.926 22.9199 181.512 22.9199ZM203.115 21.8828C203.115 23.1484 202.834 24.2676 202.271 25.2402C201.709 26.2129 200.807 26.9746 199.564 27.5254C198.334 28.0762 196.711 28.3516 194.695 28.3516C193.277 28.3516 192.006 28.2754 190.881 28.123C189.768 27.9707 188.637 27.6777 187.488 27.2441V21.7422C188.742 22.3164 190.02 22.7324 191.32 22.9902C192.621 23.2363 193.646 23.3594 194.396 23.3594C195.17 23.3594 195.732 23.2773 196.084 23.1133C196.447 22.9375 196.629 22.6797 196.629 22.3398C196.629 22.0469 196.506 21.8008 196.26 21.6016C196.025 21.3906 195.598 21.1504 194.977 20.8809C194.367 20.6113 193.506 20.248 192.393 19.791C191.291 19.334 190.371 18.8359 189.633 18.2969C188.906 17.7578 188.361 17.1133 187.998 16.3633C187.635 15.6133 187.453 14.6934 187.453 13.6035C187.453 11.6582 188.203 10.1934 189.703 9.20898C191.203 8.22461 193.189 7.73242 195.662 7.73242C196.975 7.73242 198.211 7.87891 199.371 8.17188C200.531 8.45312 201.732 8.86914 202.975 9.41992L201.094 13.8496C200.109 13.4043 199.113 13.0469 198.105 12.7773C197.098 12.5078 196.295 12.373 195.697 12.373C195.158 12.373 194.742 12.4434 194.449 12.584C194.156 12.7246 194.01 12.9297 194.01 13.1992C194.01 13.4453 194.109 13.6621 194.309 13.8496C194.52 14.0371 194.912 14.2539 195.486 14.5C196.061 14.7461 196.898 15.0918 198 15.5371C199.16 16.0059 200.115 16.5098 200.865 17.0488C201.627 17.5762 202.189 18.2207 202.553 18.9824C202.928 19.7441 203.115 20.7109 203.115 21.8828Z" fill="#FD9319"/>
<path d="M124.629 28H123.629V29H124.629V28ZM124.629 2.30078V1.30078H123.629V2.30078H124.629ZM131.572 2.30078H132.572V1.30078H131.572V2.30078ZM131.572 22.3926H130.572V23.3926H131.572V22.3926ZM141.469 22.3926H142.469V21.3926H141.469V22.3926ZM141.469 28V29H142.469V28H141.469ZM125.629 28V2.30078H123.629V28H125.629ZM124.629 3.30078H131.572V1.30078H124.629V3.30078ZM130.572 2.30078V22.3926H132.572V2.30078H130.572ZM131.572 23.3926H141.469V21.3926H131.572V23.3926ZM140.469 22.3926V28H142.469V22.3926H140.469ZM141.469 27H124.629V29H141.469V27ZM152.086 8.08398H153.086V7.08398H152.086V8.08398ZM152.086 28V29H153.086V28H152.086ZM145.213 28H144.213V29H145.213V28ZM145.213 8.08398V7.08398H144.213V8.08398H145.213ZM151.242 0.683594L150.751 1.55444L150.757 1.55775L151.242 0.683594ZM151.242 5.53516L151.734 6.40599L151.738 6.4034L151.242 5.53516ZM146.092 5.53516L145.577 6.39265L145.586 6.39767L145.594 6.40252L146.092 5.53516ZM146.092 0.683594L145.594 -0.183795L145.588 -0.180185L146.092 0.683594ZM151.086 8.08398V28H153.086V8.08398H151.086ZM152.086 27H145.213V29H152.086V27ZM146.213 28V8.08398H144.213V28H146.213ZM145.213 9.08398H152.086V7.08398H145.213V9.08398ZM148.676 1.06836C149.519 1.06836 150.199 1.24302 150.751 1.55442L151.734 -0.187231C150.832 -0.696148 149.801 -0.931641 148.676 -0.931641V1.06836ZM150.757 1.55775C151.047 1.71903 151.35 2.09238 151.35 3.12695H153.35C153.35 1.72403 152.914 0.468472 151.728 -0.190564L150.757 1.55775ZM151.35 3.12695C151.35 4.10955 151.056 4.48957 150.746 4.66691L151.738 6.4034C152.905 5.737 153.35 4.51154 153.35 3.12695H151.35ZM150.751 4.66433C150.199 4.97573 149.519 5.15039 148.676 5.15039V7.15039C149.801 7.15039 150.832 6.9149 151.734 6.40598L150.751 4.66433ZM148.676 5.15039C147.804 5.15039 147.122 4.97362 146.589 4.66779L145.594 6.40252C146.491 6.91701 147.532 7.15039 148.676 7.15039V5.15039ZM146.606 4.67766C146.327 4.5098 146.037 4.13008 146.037 3.12695H144.037C144.037 4.49102 144.451 5.71676 145.577 6.39265L146.606 4.67766ZM146.037 3.12695C146.037 2.07183 146.336 1.69902 146.596 1.54737L145.588 -0.180185C144.442 0.488476 144.037 1.74458 144.037 3.12695H146.037ZM146.589 1.55096C147.122 1.24513 147.804 1.06836 148.676 1.06836V-0.931641C147.532 -0.931641 146.491 -0.698257 145.594 -0.183773L146.589 1.55096ZM169.049 13.2344V14.2344H170.049V13.2344H169.049ZM164.812 13.2344V12.2344H163.812V13.2344H164.812ZM164.812 28V29H165.812V28H164.812ZM157.939 28H156.939V29H157.939V28ZM157.939 13.2344H158.939V12.2344H157.939V13.2344ZM155.303 13.2344H154.303V14.2344H155.303V13.2344ZM155.303 9.85938L154.783 9.00476L154.303 9.29685V9.85938H155.303ZM158.08 8.17188L158.599 9.02649L159.08 8.7344V8.17188H158.08ZM158.766 3.63672L159.686 4.02701L159.688 4.02345L158.766 3.63672ZM167.643 0.701172L167.449 1.68228L167.452 1.68279L167.643 0.701172ZM170.279 1.4043L171.228 1.7194L171.543 0.771466L170.596 0.455614L170.279 1.4043ZM168.803 5.85156L168.537 6.81556L169.452 7.06816L169.752 6.16666L168.803 5.85156ZM167.66 5.60547L167.491 6.5911L167.496 6.59186L167.66 5.60547ZM165.164 5.99219L164.364 5.39218L164.361 5.39696L165.164 5.99219ZM164.812 8.08398H163.812V9.08398H164.812V8.08398ZM169.049 8.08398H170.049V7.08398H169.049V8.08398ZM169.049 12.2344H164.812V14.2344H169.049V12.2344ZM163.812 13.2344V28H165.812V13.2344H163.812ZM164.812 27H157.939V29H164.812V27ZM158.939 28V13.2344H156.939V28H158.939ZM157.939 12.2344H155.303V14.2344H157.939V12.2344ZM156.303 13.2344V9.85938H154.303V13.2344H156.303ZM155.822 10.714L158.599 9.02649L157.561 7.31726L154.783 9.00476L155.822 10.714ZM159.08 8.17188V7.83789H157.08V8.17188H159.08ZM159.08 7.83789C159.08 6.19165 159.3 4.9378 159.686 4.02701L157.845 3.24643C157.317 4.49189 157.08 6.03882 157.08 7.83789H159.08ZM159.688 4.02345C160.059 3.1372 160.629 2.51836 161.405 2.11659L160.486 0.340445C159.27 0.969917 158.386 1.95655 157.843 3.24999L159.688 4.02345ZM161.405 2.11659C162.211 1.69932 163.338 1.45508 164.848 1.45508V-0.544922C163.147 -0.544922 161.672 -0.273537 160.486 0.340445L161.405 2.11659ZM164.848 1.45508C165.827 1.45508 166.693 1.53313 167.449 1.68228L167.836 -0.279937C166.928 -0.45891 165.93 -0.544922 164.848 -0.544922V1.45508ZM167.452 1.68279C168.248 1.83768 169.085 2.06036 169.963 2.35298L170.596 0.455614C169.645 0.138859 168.724 -0.107209 167.833 -0.280444L167.452 1.68279ZM169.33 1.08919L167.854 5.53646L169.752 6.16666L171.228 1.7194L169.33 1.08919ZM169.069 4.88757C168.689 4.7829 168.274 4.69394 167.825 4.61907L167.496 6.59186C167.89 6.65763 168.237 6.73272 168.537 6.81556L169.069 4.88757ZM167.829 4.61985C167.355 4.53864 166.853 4.5 166.324 4.5V6.5C166.757 6.5 167.145 6.53168 167.491 6.59109L167.829 4.61985ZM166.324 4.5C165.581 4.5 164.851 4.74251 164.364 5.39219L165.964 6.59219C165.979 6.57276 165.994 6.55852 166.029 6.54363C166.072 6.52554 166.162 6.5 166.324 6.5V4.5ZM164.361 5.39696C163.929 5.97937 163.812 6.77304 163.812 7.55664H165.812C165.812 6.88711 165.93 6.63782 165.968 6.58742L164.361 5.39696ZM163.812 7.55664V8.08398H165.812V7.55664H163.812ZM164.812 9.08398H169.049V7.08398H164.812V9.08398ZM168.049 8.08398V13.2344H170.049V8.08398H168.049ZM184.834 22.2344H185.834V20.8193L184.5 21.2917L184.834 22.2344ZM184.834 27.2441L185.235 28.1603L185.834 27.8982V27.2441H184.834ZM182.443 28.0352L182.214 27.0619L182.206 27.0638L182.198 27.0658L182.443 28.0352ZM175.834 27.7539L175.449 28.677L175.459 28.6809L175.834 27.7539ZM173.531 25.6445L172.649 26.1162L172.656 26.1284L173.531 25.6445ZM172.723 13.2344H173.723V12.2344H172.723V13.2344ZM170.314 13.2344H169.314V14.2344H170.314V13.2344ZM170.314 10.4395L169.737 9.62288L169.314 9.92173V10.4395H170.314ZM173.373 8.27734L173.95 9.09392L174.182 8.92977L174.294 8.66799L173.373 8.27734ZM175.148 4.09375V3.09375H174.486L174.228 3.7031L175.148 4.09375ZM179.648 4.09375H180.648V3.09375H179.648V4.09375ZM179.648 8.08398H178.648V9.08398H179.648V8.08398ZM184.535 8.08398H185.535V7.08398H184.535V8.08398ZM184.535 13.2344V14.2344H185.535V13.2344H184.535ZM179.648 13.2344V12.2344H178.648V13.2344H179.648ZM180.141 22.4453L179.434 23.1524L179.44 23.1588L179.446 23.1652L180.141 22.4453ZM181.512 23.9199C182.201 23.9199 182.852 23.8484 183.459 23.6967L182.974 21.7564C182.55 21.8625 182.064 21.9199 181.512 21.9199V23.9199ZM183.459 23.6967C184.009 23.5592 184.579 23.3856 185.168 23.177L184.5 21.2917C183.964 21.4816 183.456 21.6361 182.974 21.7564L183.459 23.6967ZM183.834 22.2344V27.2441H185.834V22.2344H183.834ZM184.433 26.328C183.741 26.6306 183.002 26.8757 182.214 27.0619L182.673 29.0084C183.572 28.7961 184.426 28.5139 185.235 28.1603L184.433 26.328ZM182.198 27.0658C181.476 27.2488 180.5 27.3516 179.244 27.3516V29.3516C180.59 29.3516 181.747 29.2434 182.689 29.0045L182.198 27.0658ZM179.244 27.3516C178.057 27.3516 177.052 27.168 176.209 26.827L175.459 28.6809C176.585 29.1367 177.853 29.3516 179.244 29.3516V27.3516ZM176.219 26.8308C175.457 26.5136 174.856 25.9734 174.406 25.1606L172.656 26.1284C173.308 27.3078 174.242 28.1739 175.449 28.677L176.219 26.8308ZM174.413 25.1729C173.984 24.3699 173.723 23.1564 173.723 21.4434H171.723C171.723 23.3163 172.001 24.9035 172.649 26.1162L174.413 25.1729ZM173.723 21.4434V13.2344H171.723V21.4434H173.723ZM172.723 12.2344H170.314V14.2344H172.723V12.2344ZM171.314 13.2344V10.4395H169.314V13.2344H171.314ZM170.892 11.256L173.95 9.09392L172.796 7.46077L169.737 9.62288L170.892 11.256ZM174.294 8.66799L176.069 4.4844L174.228 3.7031L172.453 7.88669L174.294 8.66799ZM175.148 5.09375H179.648V3.09375H175.148V5.09375ZM178.648 4.09375V8.08398H180.648V4.09375H178.648ZM179.648 9.08398H184.535V7.08398H179.648V9.08398ZM183.535 8.08398V13.2344H185.535V8.08398H183.535ZM184.535 12.2344H179.648V14.2344H184.535V12.2344ZM178.648 13.2344V20.9863H180.648V13.2344H178.648ZM178.648 20.9863C178.648 21.7911 178.855 22.5737 179.434 23.1524L180.848 21.7382C180.77 21.6607 180.648 21.4706 180.648 20.9863H178.648ZM179.446 23.1652C180.01 23.7084 180.744 23.9199 181.512 23.9199V21.9199C181.108 21.9199 180.928 21.815 180.835 21.7255L179.446 23.1652ZM199.564 27.5254L199.159 26.6112L199.156 26.6127L199.564 27.5254ZM190.881 28.123L190.745 29.1138L190.747 29.114L190.881 28.123ZM187.488 27.2441H186.488V27.9355L187.135 28.1797L187.488 27.2441ZM187.488 21.7422L187.905 20.833L186.488 20.1844V21.7422H187.488ZM191.32 22.9902L191.126 23.9712L191.134 23.9728L191.32 22.9902ZM196.084 23.1133L196.507 24.0196L196.52 24.0134L196.084 23.1133ZM196.26 21.6016L195.591 22.3449L195.61 22.3624L195.631 22.3788L196.26 21.6016ZM194.977 20.8809L194.572 21.7954L194.578 21.7982L194.977 20.8809ZM192.393 19.791L192.009 20.7147L192.013 20.7161L192.393 19.791ZM189.633 18.2969L189.037 19.1L189.043 19.1045L189.633 18.2969ZM199.371 8.17188L199.126 9.14148L199.135 9.14373L199.371 8.17188ZM202.975 9.41992L203.895 9.81075L204.28 8.90473L203.38 8.50576L202.975 9.41992ZM201.094 13.8496L200.682 14.7607L201.614 15.1826L202.014 14.2404L201.094 13.8496ZM194.309 13.8496L193.623 14.5778L193.634 14.5876L193.644 14.597L194.309 13.8496ZM198 15.5371L197.625 16.4642L197.625 16.4643L198 15.5371ZM200.865 17.0488L200.282 17.8608L200.289 17.866L200.296 17.871L200.865 17.0488ZM202.553 18.9824L201.65 19.4129L201.656 19.4241L202.553 18.9824ZM202.115 21.8828C202.115 22.9953 201.87 23.9376 201.406 24.7396L203.137 25.7409C203.798 24.5975 204.115 23.3015 204.115 21.8828H202.115ZM201.406 24.7396C200.97 25.4936 200.249 26.1278 199.159 26.6112L199.97 28.4396C201.364 27.8214 202.448 26.9322 203.137 25.7409L201.406 24.7396ZM199.156 26.6127C198.101 27.0847 196.634 27.3516 194.695 27.3516V29.3516C196.788 29.3516 198.567 29.0677 199.973 28.4381L199.156 26.6127ZM194.695 27.3516C193.312 27.3516 192.086 27.2771 191.015 27.1321L190.747 29.114C191.925 29.2736 193.243 29.3516 194.695 29.3516V27.3516ZM191.016 27.1323C189.984 26.991 188.926 26.7181 187.841 26.3086L187.135 28.1797C188.347 28.6374 189.551 28.9504 190.745 29.1138L191.016 27.1323ZM188.488 27.2441V21.7422H186.488V27.2441H188.488ZM187.072 22.6514C188.394 23.2568 189.746 23.6976 191.126 23.9712L191.515 22.0093C190.293 21.7673 189.09 21.376 187.905 20.833L187.072 22.6514ZM191.134 23.9728C192.458 24.2231 193.554 24.3594 194.396 24.3594V22.3594C193.739 22.3594 192.785 22.2495 191.506 22.0077L191.134 23.9728ZM194.396 24.3594C195.199 24.3594 195.947 24.2807 196.507 24.0195L195.661 22.2071C195.518 22.274 195.141 22.3594 194.396 22.3594V24.3594ZM196.52 24.0134C196.812 23.8718 197.098 23.6652 197.31 23.364C197.529 23.0533 197.629 22.6991 197.629 22.3398H195.629C195.629 22.3349 195.63 22.316 195.638 22.2886C195.647 22.2604 195.66 22.2338 195.675 22.2121C195.706 22.1688 195.719 22.1789 195.648 22.2131L196.52 24.0134ZM197.629 22.3398C197.629 21.7183 197.348 21.1959 196.889 20.8243L195.631 22.3788C195.646 22.3909 195.651 22.3977 195.651 22.398C195.652 22.3981 195.65 22.3968 195.649 22.3941C195.647 22.3914 195.645 22.3876 195.642 22.3828C195.637 22.3725 195.633 22.3615 195.631 22.3514C195.629 22.3416 195.629 22.337 195.629 22.3398H197.629ZM196.929 20.8583C196.565 20.5312 196.008 20.2383 195.375 19.9635L194.578 21.7982C195.187 22.0625 195.485 22.2501 195.591 22.3449L196.929 20.8583ZM195.381 19.9663C194.759 19.6914 193.888 19.3241 192.772 18.8659L192.013 20.7161C193.123 21.172 193.975 21.5313 194.572 21.7954L195.381 19.9663ZM192.776 18.8674C191.727 18.432 190.881 17.9699 190.223 17.4892L189.043 19.1045C189.861 19.7019 190.855 20.2359 192.009 20.7147L192.776 18.8674ZM190.229 17.4938C189.62 17.0424 189.185 16.52 188.898 15.9274L187.098 16.7992C187.538 17.7065 188.192 18.4732 189.037 19.1L190.229 17.4938ZM188.898 15.9274C188.618 15.3484 188.453 14.587 188.453 13.6035H186.453C186.453 14.7997 186.652 15.8782 187.098 16.7992L188.898 15.9274ZM188.453 13.6035C188.453 11.9614 189.061 10.8268 190.252 10.045L189.154 8.37294C187.346 9.55994 186.453 11.355 186.453 13.6035H188.453ZM190.252 10.045C191.538 9.20098 193.313 8.73242 195.662 8.73242V6.73242C193.066 6.73242 190.868 7.24824 189.154 8.37294L190.252 10.045ZM195.662 8.73242C196.9 8.73242 198.053 8.87053 199.126 9.14144L199.616 7.20231C198.368 6.88728 197.049 6.73242 195.662 6.73242V8.73242ZM199.135 9.14373C200.23 9.40909 201.374 9.80432 202.569 10.3341L203.38 8.50576C202.09 7.93396 200.832 7.49716 199.607 7.20002L199.135 9.14373ZM202.054 9.02909L200.173 13.4588L202.014 14.2404L203.895 9.81075L202.054 9.02909ZM201.506 12.9385C200.474 12.4715 199.426 12.0954 198.364 11.8113L197.847 13.7434C198.8 13.9983 199.745 14.3371 200.682 14.7607L201.506 12.9385ZM198.364 11.8113C197.324 11.5333 196.424 11.373 195.697 11.373V13.373C196.166 13.373 196.871 13.4823 197.847 13.7434L198.364 11.8113ZM195.697 11.373C195.095 11.373 194.505 11.4478 194.016 11.6825L194.882 13.4855C194.979 13.4389 195.221 13.373 195.697 13.373V11.373ZM194.016 11.6825C193.761 11.8052 193.501 11.9882 193.306 12.262C193.103 12.5462 193.01 12.8713 193.01 13.1992H195.01C195.01 13.2233 195.006 13.2601 194.993 13.3041C194.979 13.3487 194.958 13.3899 194.933 13.4245C194.884 13.4932 194.845 13.5034 194.882 13.4855L194.016 11.6825ZM193.01 13.1992C193.01 13.7533 193.248 14.2247 193.623 14.5778L194.994 13.1214C194.974 13.1031 194.982 13.1044 194.993 13.1289C194.998 13.1405 195.003 13.1539 195.006 13.1679C195.009 13.1819 195.01 13.1928 195.01 13.1992H193.01ZM193.644 14.597C193.986 14.9005 194.51 15.1694 195.092 15.4191L195.88 13.5809C195.315 13.3384 195.053 13.1738 194.973 13.1022L193.644 14.597ZM195.092 15.4191C195.676 15.6694 196.522 16.0182 197.625 16.4642L198.375 14.61C197.275 14.1654 196.445 13.8228 195.88 13.5809L195.092 15.4191ZM197.625 16.4643C198.736 16.9129 199.615 17.3815 200.282 17.8608L201.449 16.2368C200.616 15.638 199.585 15.0988 198.375 14.6099L197.625 16.4643ZM200.296 17.871C200.929 18.3091 201.369 18.8237 201.65 19.4129L203.455 18.5519C203.01 17.6177 202.325 16.8433 201.434 16.2266L200.296 17.871ZM201.656 19.4241C201.942 20.0064 202.115 20.8092 202.115 21.8828H204.115C204.115 20.6127 203.913 19.4819 203.45 18.5407L201.656 19.4241Z" fill="#1C0049" mask="url(#path-16-inside-1_636_1584)"/>
<path d="M139.887 79H124.629V53.3008H139.887V58.873H131.572V62.916H139.271V68.4883H131.572V73.3398H139.887V79ZM158.783 72.8828C158.783 74.1484 158.502 75.2676 157.939 76.2402C157.377 77.2129 156.475 77.9746 155.232 78.5254C154.002 79.0762 152.379 79.3516 150.363 79.3516C148.945 79.3516 147.674 79.2754 146.549 79.123C145.436 78.9707 144.305 78.6777 143.156 78.2441V72.7422C144.41 73.3164 145.688 73.7324 146.988 73.9902C148.289 74.2363 149.314 74.3594 150.064 74.3594C150.838 74.3594 151.4 74.2773 151.752 74.1133C152.115 73.9375 152.297 73.6797 152.297 73.3398C152.297 73.0469 152.174 72.8008 151.928 72.6016C151.693 72.3906 151.266 72.1504 150.645 71.8809C150.035 71.6113 149.174 71.248 148.061 70.791C146.959 70.334 146.039 69.8359 145.301 69.2969C144.574 68.7578 144.029 68.1133 143.666 67.3633C143.303 66.6133 143.121 65.6934 143.121 64.6035C143.121 62.6582 143.871 61.1934 145.371 60.209C146.871 59.2246 148.857 58.7324 151.33 58.7324C152.643 58.7324 153.879 58.8789 155.039 59.1719C156.199 59.4531 157.4 59.8691 158.643 60.4199L156.762 64.8496C155.777 64.4043 154.781 64.0469 153.773 63.7773C152.766 63.5078 151.963 63.373 151.365 63.373C150.826 63.373 150.41 63.4434 150.117 63.584C149.824 63.7246 149.678 63.9297 149.678 64.1992C149.678 64.4453 149.777 64.6621 149.977 64.8496C150.188 65.0371 150.58 65.2539 151.154 65.5C151.729 65.7461 152.566 66.0918 153.668 66.5371C154.828 67.0059 155.783 67.5098 156.533 68.0488C157.295 68.5762 157.857 69.2207 158.221 69.9824C158.596 70.7441 158.783 71.7109 158.783 72.8828ZM171.686 79.3516C169.67 79.3516 167.918 78.9941 166.43 78.2793C164.941 77.5527 163.787 76.4395 162.967 74.9395C162.158 73.4277 161.754 71.4941 161.754 69.1387C161.754 66.7246 162.205 64.75 163.107 63.2148C164.021 61.6797 165.27 60.5488 166.852 59.8223C168.434 59.0957 170.227 58.7324 172.23 58.7324C173.449 58.7324 174.604 58.8672 175.693 59.1367C176.795 59.4062 177.814 59.7754 178.752 60.2441L176.73 65.3242C175.91 64.9609 175.143 64.6738 174.428 64.4629C173.725 64.2402 172.992 64.1289 172.23 64.1289C171.539 64.1289 170.93 64.3105 170.402 64.6738C169.875 65.0371 169.465 65.5879 169.172 66.3262C168.879 67.0527 168.732 67.9785 168.732 69.1035C168.732 70.252 168.879 71.1777 169.172 71.8809C169.477 72.584 169.893 73.0938 170.42 73.4102C170.959 73.7266 171.574 73.8848 172.266 73.8848C173.262 73.8848 174.252 73.7324 175.236 73.4277C176.232 73.1113 177.176 72.6777 178.066 72.127V77.5938C177.246 78.1328 176.32 78.5605 175.289 78.877C174.258 79.1934 173.057 79.3516 171.686 79.3516ZM191.742 58.7324C194.262 58.7324 196.23 59.3594 197.648 60.6133C199.066 61.8555 199.775 63.6309 199.775 65.9395V79H195.012L193.693 76.3633H193.553C192.99 77.0664 192.41 77.6406 191.812 78.0859C191.227 78.5195 190.553 78.8359 189.791 79.0352C189.029 79.2461 188.098 79.3516 186.996 79.3516C185.848 79.3516 184.816 79.1172 183.902 78.6484C182.988 78.1797 182.268 77.4707 181.74 76.5215C181.213 75.5723 180.949 74.3711 180.949 72.918C180.949 70.7852 181.688 69.2031 183.164 68.1719C184.641 67.1406 186.779 66.5605 189.58 66.4316L192.902 66.3262V66.0449C192.902 65.1543 192.68 64.5215 192.234 64.1465C191.801 63.7715 191.215 63.584 190.477 63.584C189.691 63.584 188.812 63.7246 187.84 64.0059C186.879 64.2754 185.912 64.627 184.939 65.0605L182.953 60.5254C184.102 59.9395 185.402 59.4941 186.855 59.1895C188.309 58.8848 189.938 58.7324 191.742 58.7324ZM192.938 70.1055L191.355 70.1758C190.09 70.2227 189.199 70.4453 188.684 70.8438C188.18 71.2305 187.928 71.7871 187.928 72.5137C187.928 73.1934 188.109 73.6973 188.473 74.0254C188.836 74.3418 189.316 74.5 189.914 74.5C190.746 74.5 191.455 74.2363 192.041 73.709C192.639 73.1816 192.938 72.4961 192.938 71.6523V70.1055ZM211.324 79H204.451V51.6484H211.324V79ZM225.809 58.7324C228.328 58.7324 230.297 59.3594 231.715 60.6133C233.133 61.8555 233.842 63.6309 233.842 65.9395V79H229.078L227.76 76.3633H227.619C227.057 77.0664 226.477 77.6406 225.879 78.0859C225.293 78.5195 224.619 78.8359 223.857 79.0352C223.096 79.2461 222.164 79.3516 221.062 79.3516C219.914 79.3516 218.883 79.1172 217.969 78.6484C217.055 78.1797 216.334 77.4707 215.807 76.5215C215.279 75.5723 215.016 74.3711 215.016 72.918C215.016 70.7852 215.754 69.2031 217.23 68.1719C218.707 67.1406 220.846 66.5605 223.646 66.4316L226.969 66.3262V66.0449C226.969 65.1543 226.746 64.5215 226.301 64.1465C225.867 63.7715 225.281 63.584 224.543 63.584C223.758 63.584 222.879 63.7246 221.906 64.0059C220.945 64.2754 219.979 64.627 219.006 65.0605L217.02 60.5254C218.168 59.9395 219.469 59.4941 220.922 59.1895C222.375 58.8848 224.004 58.7324 225.809 58.7324ZM227.004 70.1055L225.422 70.1758C224.156 70.2227 223.266 70.4453 222.75 70.8438C222.246 71.2305 221.994 71.7871 221.994 72.5137C221.994 73.1934 222.176 73.6973 222.539 74.0254C222.902 74.3418 223.383 74.5 223.98 74.5C224.812 74.5 225.521 74.2363 226.107 73.709C226.705 73.1816 227.004 72.4961 227.004 71.6523V70.1055ZM248.273 73.9199C248.895 73.9199 249.463 73.8555 249.979 73.7266C250.494 73.5977 251.033 73.4336 251.596 73.2344V78.2441C250.846 78.5723 250.049 78.8359 249.205 79.0352C248.373 79.2461 247.307 79.3516 246.006 79.3516C244.717 79.3516 243.58 79.1523 242.596 78.7539C241.611 78.3438 240.844 77.6406 240.293 76.6445C239.754 75.6367 239.484 74.2363 239.484 72.4434V64.2344H237.076V61.4395L240.135 59.2773L241.91 55.0938H246.41V59.084H251.297V64.2344H246.41V71.9863C246.41 72.6309 246.574 73.1172 246.902 73.4453C247.23 73.7617 247.688 73.9199 248.273 73.9199ZM274.096 68.998C274.096 70.6621 273.867 72.1387 273.41 73.4277C272.953 74.7168 272.291 75.8008 271.424 76.6797C270.557 77.5586 269.508 78.2266 268.277 78.6836C267.047 79.1289 265.658 79.3516 264.111 79.3516C262.67 79.3516 261.346 79.1289 260.139 78.6836C258.943 78.2266 257.9 77.5586 257.01 76.6797C256.119 75.8008 255.428 74.7168 254.936 73.4277C254.455 72.1387 254.215 70.6621 254.215 68.998C254.215 66.7949 254.613 64.9316 255.41 63.4082C256.219 61.8848 257.367 60.7246 258.855 59.9277C260.355 59.1309 262.143 58.7324 264.217 58.7324C266.127 58.7324 267.826 59.1309 269.314 59.9277C270.803 60.7246 271.969 61.8848 272.812 63.4082C273.668 64.9316 274.096 66.7949 274.096 68.998ZM261.193 68.998C261.193 70.1348 261.293 71.0957 261.492 71.8809C261.691 72.6543 262.008 73.2461 262.441 73.6562C262.887 74.0547 263.467 74.2539 264.182 74.2539C264.896 74.2539 265.465 74.0547 265.887 73.6562C266.309 73.2461 266.613 72.6543 266.801 71.8809C267 71.0957 267.1 70.1348 267.1 68.998C267.1 67.8613 267 66.9121 266.801 66.1504C266.613 65.3887 266.303 64.8145 265.869 64.4277C265.447 64.041 264.873 63.8477 264.146 63.8477C263.104 63.8477 262.348 64.2812 261.879 65.1484C261.422 66.0156 261.193 67.2988 261.193 68.998ZM290.057 58.7324C290.432 58.7324 290.824 58.7617 291.234 58.8203C291.645 58.8672 291.949 58.9082 292.148 58.9434L291.533 65.4297C291.311 65.3711 291.023 65.3242 290.672 65.2891C290.32 65.2422 289.828 65.2188 289.195 65.2188C288.762 65.2188 288.299 65.2598 287.807 65.3418C287.314 65.4238 286.846 65.5996 286.4 65.8691C285.967 66.127 285.609 66.5254 285.328 67.0645C285.047 67.5918 284.906 68.3066 284.906 69.209V79H278.033V59.084H283.148L284.221 62.2656H284.555C284.918 61.6094 285.381 61.0176 285.943 60.4902C286.518 59.9512 287.156 59.5234 287.859 59.207C288.574 58.8906 289.307 58.7324 290.057 58.7324ZM309.744 72.8828C309.744 74.1484 309.463 75.2676 308.9 76.2402C308.338 77.2129 307.436 77.9746 306.193 78.5254C304.963 79.0762 303.34 79.3516 301.324 79.3516C299.906 79.3516 298.635 79.2754 297.51 79.123C296.396 78.9707 295.266 78.6777 294.117 78.2441V72.7422C295.371 73.3164 296.648 73.7324 297.949 73.9902C299.25 74.2363 300.275 74.3594 301.025 74.3594C301.799 74.3594 302.361 74.2773 302.713 74.1133C303.076 73.9375 303.258 73.6797 303.258 73.3398C303.258 73.0469 303.135 72.8008 302.889 72.6016C302.654 72.3906 302.227 72.1504 301.605 71.8809C300.996 71.6113 300.135 71.248 299.021 70.791C297.92 70.334 297 69.8359 296.262 69.2969C295.535 68.7578 294.99 68.1133 294.627 67.3633C294.264 66.6133 294.082 65.6934 294.082 64.6035C294.082 62.6582 294.832 61.1934 296.332 60.209C297.832 59.2246 299.818 58.7324 302.291 58.7324C303.604 58.7324 304.84 58.8789 306 59.1719C307.16 59.4531 308.361 59.8691 309.604 60.4199L307.723 64.8496C306.738 64.4043 305.742 64.0469 304.734 63.7773C303.727 63.5078 302.924 63.373 302.326 63.373C301.787 63.373 301.371 63.4434 301.078 63.584C300.785 63.7246 300.639 63.9297 300.639 64.1992C300.639 64.4453 300.738 64.6621 300.938 64.8496C301.148 65.0371 301.541 65.2539 302.115 65.5C302.689 65.7461 303.527 66.0918 304.629 66.5371C305.789 67.0059 306.744 67.5098 307.494 68.0488C308.256 68.5762 308.818 69.2207 309.182 69.9824C309.557 70.7441 309.744 71.7109 309.744 72.8828Z" fill="#1C0049"/>
<defs>
<clipPath id="clip0_636_1584">
<rect width="71.8519" height="80" fill="white"/>
</clipPath>
</defs>
</svg>
