<svg width="70" height="70" viewBox="0 0 70 70" fill="none" xmlns="http://www.w3.org/2000/svg">
<path d="M29.792 25.8182V44H27.0399V28.5703H26.9334L22.5832 31.4112V28.7834L27.1198 25.8182H29.792ZM41.058 44.2486C40.2472 44.2367 39.4482 44.0888 38.661 43.8047C37.8797 43.5206 37.1695 43.0471 36.5303 42.3842C35.8911 41.7214 35.3792 40.8306 34.9945 39.712C34.6157 38.5934 34.4263 37.1966 34.4263 35.5217C34.4263 33.9355 34.5831 32.5269 34.8968 31.2958C35.2164 30.0647 35.6751 29.026 36.2729 28.1797C36.8706 27.3274 37.5927 26.6793 38.4391 26.2354C39.2854 25.7915 40.2353 25.5696 41.2888 25.5696C42.3719 25.5696 43.3337 25.7827 44.1741 26.2088C45.0146 26.6349 45.6952 27.2238 46.216 27.9755C46.7428 28.7272 47.0772 29.5824 47.2192 30.5412H44.5115C44.328 29.7836 43.964 29.1651 43.4195 28.6857C42.875 28.2063 42.1648 27.9666 41.2888 27.9666C39.9572 27.9666 38.9185 28.5466 38.1727 29.7067C37.4329 30.8667 37.06 32.4795 37.0541 34.5451H37.1873C37.501 34.0302 37.8857 33.5922 38.3414 33.2312C38.803 32.8642 39.318 32.5831 39.8861 32.3878C40.4602 32.1866 41.0639 32.0859 41.6972 32.0859C42.7507 32.0859 43.7036 32.3434 44.5559 32.8583C45.4141 33.3673 46.0977 34.0716 46.6067 34.9712C47.1157 35.8709 47.3702 36.9007 47.3702 38.0607C47.3702 39.2208 47.1068 40.2713 46.58 41.2124C46.0592 42.1534 45.3253 42.8991 44.3783 43.4496C43.4314 43.9941 42.3246 44.2604 41.058 44.2486ZM41.0491 41.9403C41.7475 41.9403 42.3719 41.7687 42.9224 41.4254C43.4728 41.0821 43.9078 40.6205 44.2274 40.0405C44.547 39.4605 44.7068 38.8124 44.7068 38.0962C44.7068 37.3978 44.55 36.7616 44.2363 36.1875C43.9285 35.6134 43.5024 35.1577 42.9579 34.8203C42.4193 34.483 41.8038 34.3143 41.1113 34.3143C40.5845 34.3143 40.0963 34.4149 39.6464 34.6161C39.2025 34.8174 38.8119 35.0955 38.4746 35.4506C38.1372 35.8058 37.8709 36.2141 37.6756 36.6758C37.4862 37.1315 37.3915 37.6139 37.3915 38.1229C37.3915 38.8035 37.5483 39.4338 37.862 40.0138C38.1816 40.5939 38.6166 41.0614 39.167 41.4165C39.7234 41.7657 40.3507 41.9403 41.0491 41.9403Z" fill="#6D7073"/>
<circle cx="35" cy="35" r="34" stroke="#6D7073" stroke-width="2"/>
</svg>
