<svg width="70" height="70" viewBox="0 0 70 70" fill="none" xmlns="http://www.w3.org/2000/svg">
<path d="M29.8409 25.8182V44H27.0887V28.5703H26.9822L22.6321 31.4112V28.7834L27.1686 25.8182H29.8409ZM40.9027 44.2486C39.6302 44.2486 38.5056 44.0296 37.5291 43.5916C36.5584 43.1536 35.7979 42.55 35.2475 41.7805C34.697 41.0111 34.4248 40.1352 34.4307 39.1527C34.4248 38.3833 34.5816 37.676 34.9012 37.0309C35.2268 36.3799 35.6677 35.8383 36.224 35.4062C36.7804 34.9683 37.4018 34.6901 38.0884 34.5717V34.4652C37.1828 34.2462 36.4578 33.7609 35.9133 33.0092C35.3688 32.2576 35.0995 31.3935 35.1054 30.4169C35.0995 29.4877 35.3451 28.6591 35.8423 27.9311C36.3454 27.1972 37.0349 26.6201 37.9108 26.1999C38.7868 25.7797 39.784 25.5696 40.9027 25.5696C42.0094 25.5696 42.9978 25.7827 43.8679 26.2088C44.7438 26.629 45.4333 27.2061 45.9364 27.94C46.4395 28.668 46.694 29.4936 46.6999 30.4169C46.694 31.3935 46.4158 32.2576 45.8654 33.0092C45.3149 33.7609 44.5988 34.2462 43.7169 34.4652V34.5717C44.3976 34.6901 45.0101 34.9683 45.5546 35.4062C46.1051 35.8383 46.543 36.3799 46.8686 37.0309C47.2 37.676 47.3687 38.3833 47.3746 39.1527C47.3687 40.1352 47.0905 41.0111 46.5401 41.7805C45.9897 42.55 45.2262 43.1536 44.2496 43.5916C43.279 44.0296 42.1633 44.2486 40.9027 44.2486ZM40.9027 42.0025C41.6543 42.0025 42.3054 41.8782 42.8558 41.6296C43.4062 41.3751 43.8323 41.023 44.1342 40.5732C44.436 40.1174 44.5899 39.5848 44.5958 38.9751C44.5899 38.3419 44.4242 37.7826 44.0987 37.2972C43.7791 36.8119 43.3441 36.4302 42.7936 36.152C42.2432 35.8738 41.6129 35.7347 40.9027 35.7347C40.1865 35.7347 39.5503 35.8738 38.9939 36.152C38.4376 36.4302 37.9996 36.8119 37.68 37.2972C37.3604 37.7826 37.2036 38.3419 37.2095 38.9751C37.2036 39.5848 37.3486 40.1174 37.6445 40.5732C37.9463 41.023 38.3754 41.3751 38.9318 41.6296C39.4881 41.8782 40.1451 42.0025 40.9027 42.0025ZM40.9027 33.5419C41.5063 33.5419 42.042 33.4206 42.5095 33.1779C42.9771 32.9353 43.3441 32.5979 43.6104 32.1658C43.8827 31.7338 44.0217 31.2277 44.0277 30.6477C44.0217 30.0795 43.8856 29.5824 43.6193 29.1562C43.3589 28.7301 42.9949 28.4016 42.5273 28.1708C42.0597 27.9341 41.5182 27.8157 40.9027 27.8157C40.2753 27.8157 39.7249 27.9341 39.2514 28.1708C38.7838 28.4016 38.4198 28.7301 38.1594 29.1562C37.899 29.5824 37.7717 30.0795 37.7777 30.6477C37.7717 31.2277 37.9019 31.7338 38.1683 32.1658C38.4346 32.5979 38.8016 32.9353 39.2691 33.1779C39.7426 33.4206 40.2871 33.5419 40.9027 33.5419Z" fill="#6D7073"/>
<circle cx="35" cy="35" r="34" stroke="#6D7073" stroke-width="2"/>
</svg>
