<svg width="70" height="70" viewBox="0 0 70 70" fill="none" xmlns="http://www.w3.org/2000/svg">
<path d="M29.67 25.8182V44H26.9178V28.5703H26.8113L22.4612 31.4112V28.7834L26.9977 25.8182H29.67ZM40.9182 44.3018C39.5155 44.2959 38.317 43.926 37.3227 43.1921C36.3283 42.4582 35.5678 41.3899 35.0411 39.9872C34.5143 38.5845 34.2509 36.8948 34.2509 34.918C34.2509 32.9471 34.5143 31.2633 35.0411 29.8665C35.5737 28.4697 36.3372 27.4044 37.3315 26.6705C38.3318 25.9366 39.5273 25.5696 40.9182 25.5696C42.3091 25.5696 43.5016 25.9395 44.496 26.6793C45.4903 27.4132 46.2508 28.4786 46.7776 29.8754C47.3102 31.2662 47.5766 32.9471 47.5766 34.918C47.5766 36.9007 47.3132 38.5934 46.7864 39.9961C46.2597 41.3929 45.4992 42.4612 44.5048 43.201C43.5105 43.9349 42.315 44.3018 40.9182 44.3018ZM40.9182 41.9315C42.1493 41.9315 43.111 41.3307 43.8035 40.1293C44.5019 38.9278 44.8511 37.1907 44.8511 34.918C44.8511 33.4087 44.6913 32.1333 44.3717 31.0916C44.058 30.044 43.6052 29.2509 43.0134 28.7124C42.4274 28.1678 41.729 27.8956 40.9182 27.8956C39.693 27.8956 38.7313 28.4993 38.0329 29.7067C37.3345 30.9141 36.9823 32.6512 36.9764 34.918C36.9764 36.4331 37.1333 37.7145 37.447 38.7621C37.7666 39.8037 38.2193 40.5939 38.8053 41.1325C39.3912 41.6651 40.0955 41.9315 40.9182 41.9315Z" fill="#6D7073"/>
<circle cx="35" cy="35" r="34" stroke="#6D7073" stroke-width="2"/>
</svg>
