<svg width="70" height="70" viewBox="0 0 70 70" fill="none" xmlns="http://www.w3.org/2000/svg">
<path d="M30.0728 25.8182V44H27.3207V28.5703H27.2141L22.864 31.4112V28.7834L27.4006 25.8182H30.0728ZM34.9911 44V42.0114L41.1435 35.6371C41.8004 34.9446 42.342 34.3379 42.7681 33.8171C43.2002 33.2904 43.5227 32.7902 43.7358 32.3168C43.9489 31.8433 44.0554 31.3402 44.0554 30.8075C44.0554 30.2038 43.9134 29.683 43.6293 29.245C43.3452 28.8011 42.9575 28.4608 42.4663 28.2241C41.975 27.9814 41.4216 27.8601 40.8061 27.8601C40.1551 27.8601 39.5869 27.9933 39.1016 28.2596C38.6162 28.5259 38.2434 28.9018 37.983 29.3871C37.7225 29.8724 37.5923 30.4406 37.5923 31.0916H34.9734C34.9734 29.9848 35.2279 29.0172 35.7369 28.1886C36.2459 27.36 36.9442 26.7178 37.832 26.2621C38.7198 25.8004 39.7289 25.5696 40.8594 25.5696C42.0017 25.5696 43.0078 25.7975 43.8778 26.2532C44.7538 26.703 45.4374 27.3185 45.9286 28.0998C46.4199 28.8751 46.6655 29.7511 46.6655 30.7276C46.6655 31.4023 46.5382 32.0623 46.2837 32.7074C46.0352 33.3525 45.6001 34.0716 44.9787 34.8647C44.3572 35.6519 43.4931 36.6077 42.3864 37.7322L38.7731 41.5142V41.6474H46.9585V44H34.9911Z" fill="#6D7073"/>
<circle cx="35" cy="35" r="34" stroke="#6D7073" stroke-width="2"/>
</svg>
