<svg width="70" height="70" viewBox="0 0 70 70" fill="none" xmlns="http://www.w3.org/2000/svg">
<path d="M29.6822 25.8182V44H26.93V28.5703H26.8235L22.4734 31.4112V28.7834L27.0099 25.8182H29.6822ZM40.9304 44.2486C39.7112 44.2486 38.6222 44.0385 37.6634 43.6183C36.7105 43.198 35.9558 42.6151 35.3995 41.8693C34.8491 41.1177 34.5531 40.2476 34.5117 39.2592H37.2994C37.3349 39.7978 37.5154 40.2654 37.8409 40.6619C38.1723 41.0526 38.6044 41.3544 39.1371 41.5675C39.6697 41.7805 40.2616 41.8871 40.9126 41.8871C41.6288 41.8871 42.2621 41.7628 42.8125 41.5142C43.3688 41.2656 43.8039 40.9194 44.1175 40.4755C44.4312 40.0257 44.5881 39.5078 44.5881 38.9219C44.5881 38.3123 44.4312 37.7766 44.1175 37.315C43.8098 36.8474 43.357 36.4805 42.7592 36.2141C42.1674 35.9478 41.4512 35.8146 40.6108 35.8146H39.0749V33.5774H40.6108C41.2855 33.5774 41.8774 33.4561 42.3864 33.2134C42.9013 32.9708 43.3037 32.6334 43.5938 32.2013C43.8838 31.7634 44.0288 31.2514 44.0288 30.6655C44.0288 30.1032 43.9015 29.6149 43.647 29.2006C43.3984 28.7804 43.0433 28.4519 42.5817 28.2152C42.1259 27.9785 41.5874 27.8601 40.9659 27.8601C40.3741 27.8601 39.8207 27.9696 39.3058 28.1886C38.7968 28.4016 38.3825 28.7094 38.0629 29.1119C37.7433 29.5084 37.5716 29.9848 37.5479 30.5412H34.8935C34.9231 29.5587 35.2131 28.6946 35.7635 27.9489C36.3198 27.2031 37.0537 26.6201 37.9652 26.1999C38.8767 25.7797 39.8887 25.5696 41.0014 25.5696C42.1674 25.5696 43.1735 25.7975 44.0199 26.2532C44.8722 26.703 45.5291 27.3037 45.9908 28.0554C46.4583 28.8071 46.6892 29.6297 46.6832 30.5234C46.6892 31.5414 46.4051 32.4055 45.831 33.1158C45.2628 33.826 44.5052 34.3024 43.5582 34.5451V34.6871C44.7656 34.8706 45.7008 35.35 46.3636 36.1254C47.0324 36.9007 47.3639 37.8625 47.358 39.0107C47.3639 40.0109 47.0857 40.9076 46.5234 41.7006C45.9671 42.4937 45.2066 43.1181 44.2418 43.5739C43.2771 44.0237 42.1733 44.2486 40.9304 44.2486Z" fill="#6D7073"/>
<circle cx="35" cy="35" r="34" stroke="#6D7073" stroke-width="2"/>
</svg>
