<svg width="70" height="70" viewBox="0 0 70 70" fill="none" xmlns="http://www.w3.org/2000/svg">
<path d="M29.0829 44V42.0114L35.2353 35.6371C35.8922 34.9446 36.4338 34.3379 36.8599 33.8171C37.292 33.2904 37.6145 32.7902 37.8276 32.3168C38.0407 31.8433 38.1472 31.3402 38.1472 30.8075C38.1472 30.2038 38.0051 29.683 37.7211 29.245C37.437 28.8011 37.0493 28.4608 36.5581 28.2241C36.0668 27.9814 35.5134 27.8601 34.8979 27.8601C34.2469 27.8601 33.6787 27.9933 33.1934 28.2596C32.708 28.5259 32.3352 28.9018 32.0748 29.3871C31.8143 29.8724 31.6841 30.4406 31.6841 31.0916H29.0652C29.0652 29.9848 29.3197 29.0172 29.8287 28.1886C30.3377 27.36 31.036 26.7178 31.9238 26.2621C32.8116 25.8004 33.8207 25.5696 34.9512 25.5696C36.0935 25.5696 37.0996 25.7975 37.9696 26.2532C38.8456 26.703 39.5292 27.3185 40.0204 28.0998C40.5117 28.8751 40.7573 29.7511 40.7573 30.7276C40.7573 31.4023 40.63 32.0623 40.3755 32.7074C40.127 33.3525 39.6919 34.0716 39.0705 34.8647C38.449 35.6519 37.5849 36.6077 36.4782 37.7322L32.8649 41.5142V41.6474H41.0502V44H29.0829Z" fill="#6D7073"/>
<circle cx="35" cy="35" r="34" stroke="#6D7073" stroke-width="2"/>
</svg>
