<svg width="70" height="70" viewBox="0 0 70 70" fill="none" xmlns="http://www.w3.org/2000/svg">
<path d="M29.9873 25.8182V44H27.2352V28.5703H27.1287L22.7785 31.4112V28.7834L27.3151 25.8182H29.9873ZM40.9071 44.2486C39.7944 44.2486 38.7942 44.0355 37.9064 43.6094C37.0245 43.1773 36.3202 42.5855 35.7935 41.8338C35.2667 41.0821 34.9856 40.224 34.9501 39.2592H37.6134C37.6785 40.0405 38.0248 40.6826 38.6521 41.1857C39.2795 41.6888 40.0311 41.9403 40.9071 41.9403C41.6055 41.9403 42.224 41.7805 42.7626 41.4609C43.3071 41.1354 43.7332 40.6886 44.041 40.1204C44.3547 39.5522 44.5115 38.9041 44.5115 38.1761C44.5115 37.4363 44.3517 36.7764 44.0321 36.1964C43.7125 35.6164 43.2716 35.1606 42.7093 34.8292C42.153 34.4978 41.5137 34.3291 40.7917 34.3232C40.2413 34.3232 39.6879 34.4179 39.1315 34.6072C38.5752 34.7966 38.1254 35.0452 37.7821 35.353L35.2697 34.9801L36.2906 25.8182H46.2871V28.1708H38.5722L37.9952 33.2578H38.1017C38.4568 32.9145 38.9273 32.6275 39.5133 32.3967C40.1051 32.1658 40.7384 32.0504 41.4131 32.0504C42.5199 32.0504 43.5053 32.3138 44.3695 32.8406C45.2395 33.3673 45.9231 34.0864 46.4202 34.9979C46.9233 35.9034 47.1719 36.9451 47.166 38.1229C47.1719 39.3007 46.9056 40.3512 46.367 41.2745C45.8343 42.1978 45.0945 42.9258 44.1475 43.4585C43.2065 43.9852 42.1263 44.2486 40.9071 44.2486Z" fill="#6D7073"/>
<circle cx="35" cy="35" r="34" stroke="#6D7073" stroke-width="2"/>
</svg>
