<svg width="70" height="70" viewBox="0 0 70 70" fill="none" xmlns="http://www.w3.org/2000/svg">
<path d="M35.1498 44.2486C34.339 44.2367 33.54 44.0888 32.7528 43.8047C31.9715 43.5206 31.2613 43.0471 30.6221 42.3842C29.9829 41.7214 29.471 40.8306 29.0862 39.712C28.7075 38.5934 28.5181 37.1966 28.5181 35.5217C28.5181 33.9355 28.6749 32.5269 28.9886 31.2958C29.3082 30.0647 29.7669 29.026 30.3647 28.1797C30.9624 27.3274 31.6845 26.6793 32.5309 26.2354C33.3772 25.7915 34.3271 25.5696 35.3806 25.5696C36.4637 25.5696 37.4255 25.7827 38.2659 26.2088C39.1064 26.6349 39.787 27.2238 40.3078 27.9755C40.8346 28.7272 41.169 29.5824 41.311 30.5412H38.6033C38.4198 29.7836 38.0558 29.1651 37.5113 28.6857C36.9668 28.2063 36.2566 27.9666 35.3806 27.9666C34.049 27.9666 33.0103 28.5466 32.2645 29.7067C31.5247 30.8667 31.1518 32.4795 31.1459 34.5451H31.2791C31.5928 34.0302 31.9775 33.5922 32.4332 33.2312C32.8948 32.8642 33.4098 32.5831 33.9779 32.3878C34.552 32.1866 35.1557 32.0859 35.789 32.0859C36.8425 32.0859 37.7954 32.3434 38.6477 32.8583C39.5059 33.3673 40.1895 34.0716 40.6985 34.9712C41.2075 35.8709 41.462 36.9007 41.462 38.0607C41.462 39.2208 41.1986 40.2713 40.6718 41.2124C40.151 42.1534 39.4171 42.8991 38.4701 43.4496C37.5232 43.9941 36.4164 44.2604 35.1498 44.2486ZM35.1409 41.9403C35.8393 41.9403 36.4637 41.7687 37.0142 41.4254C37.5646 41.0821 37.9996 40.6205 38.3192 40.0405C38.6388 39.4605 38.7986 38.8124 38.7986 38.0962C38.7986 37.3978 38.6418 36.7616 38.3281 36.1875C38.0203 35.6134 37.5942 35.1577 37.0497 34.8203C36.5111 34.483 35.8956 34.3143 35.2031 34.3143C34.6763 34.3143 34.188 34.4149 33.7382 34.6161C33.2943 34.8174 32.9037 35.0955 32.5664 35.4506C32.229 35.8058 31.9627 36.2141 31.7674 36.6758C31.578 37.1315 31.4833 37.6139 31.4833 38.1229C31.4833 38.8035 31.6401 39.4338 31.9538 40.0138C32.2734 40.5939 32.7084 41.0614 33.2588 41.4165C33.8152 41.7657 34.4425 41.9403 35.1409 41.9403Z" fill="#6D7073"/>
<circle cx="35" cy="35" r="34" stroke="#6D7073" stroke-width="2"/>
</svg>
