<svg width="70" height="70" viewBox="0 0 70 70" fill="none" xmlns="http://www.w3.org/2000/svg">
<path d="M34.9989 44.2486C33.8862 44.2486 32.886 44.0355 31.9982 43.6094C31.1163 43.1773 30.412 42.5855 29.8853 41.8338C29.3585 41.0821 29.0774 40.224 29.0419 39.2592H31.7052C31.7703 40.0405 32.1166 40.6826 32.7439 41.1857C33.3713 41.6888 34.1229 41.9403 34.9989 41.9403C35.6973 41.9403 36.3158 41.7805 36.8544 41.4609C37.3989 41.1354 37.825 40.6886 38.1328 40.1204C38.4465 39.5522 38.6033 38.9041 38.6033 38.1761C38.6033 37.4363 38.4435 36.7764 38.1239 36.1964C37.8043 35.6164 37.3634 35.1606 36.8011 34.8292C36.2447 34.4978 35.6055 34.3291 34.8835 34.3232C34.3331 34.3232 33.7797 34.4179 33.2233 34.6072C32.667 34.7966 32.2172 35.0452 31.8739 35.353L29.3615 34.9801L30.3824 25.8182H40.3789V28.1708H32.664L32.087 33.2578H32.1935C32.5486 32.9145 33.0191 32.6275 33.6051 32.3967C34.1969 32.1658 34.8302 32.0504 35.5049 32.0504C36.6117 32.0504 37.5971 32.3138 38.4612 32.8406C39.3313 33.3673 40.0149 34.0864 40.512 34.9979C41.0151 35.9034 41.2637 36.9451 41.2578 38.1229C41.2637 39.3007 40.9974 40.3512 40.4588 41.2745C39.9261 42.1978 39.1863 42.9258 38.2393 43.4585C37.2983 43.9852 36.2181 44.2486 34.9989 44.2486Z" fill="#6D7073"/>
<circle cx="35" cy="35" r="34" stroke="#6D7073" stroke-width="2"/>
</svg>
