<svg width="70" height="70" viewBox="0 0 70 70" fill="none" xmlns="http://www.w3.org/2000/svg">
<path d="M34.9945 44.2486C33.722 44.2486 32.5974 44.0296 31.6209 43.5916C30.6502 43.1536 29.8897 42.55 29.3393 41.7805C28.7888 41.0111 28.5166 40.1352 28.5225 39.1527C28.5166 38.3833 28.6734 37.676 28.993 37.0309C29.3186 36.3799 29.7595 35.8383 30.3158 35.4062C30.8722 34.9683 31.4936 34.6901 32.1802 34.5717V34.4652C31.2746 34.2462 30.5496 33.7609 30.0051 33.0092C29.4606 32.2576 29.1913 31.3935 29.1972 30.4169C29.1913 29.4877 29.4369 28.6591 29.9341 27.9311C30.4372 27.1972 31.1267 26.6201 32.0026 26.1999C32.8786 25.7797 33.8758 25.5696 34.9945 25.5696C36.1012 25.5696 37.0896 25.7827 37.9597 26.2088C38.8356 26.629 39.5251 27.2061 40.0282 27.94C40.5313 28.668 40.7858 29.4936 40.7917 30.4169C40.7858 31.3935 40.5076 32.2576 39.9572 33.0092C39.4067 33.7609 38.6906 34.2462 37.8087 34.4652V34.5717C38.4894 34.6901 39.1019 34.9683 39.6464 35.4062C40.1969 35.8383 40.6348 36.3799 40.9604 37.0309C41.2918 37.676 41.4605 38.3833 41.4664 39.1527C41.4605 40.1352 41.1823 41.0111 40.6319 41.7805C40.0815 42.55 39.318 43.1536 38.3414 43.5916C37.3708 44.0296 36.2551 44.2486 34.9945 44.2486ZM34.9945 42.0025C35.7461 42.0025 36.3972 41.8782 36.9476 41.6296C37.498 41.3751 37.9241 41.023 38.226 40.5732C38.5278 40.1174 38.6817 39.5848 38.6876 38.9751C38.6817 38.3419 38.516 37.7826 38.1905 37.2972C37.8709 36.8119 37.4359 36.4302 36.8854 36.152C36.335 35.8738 35.7047 35.7347 34.9945 35.7347C34.2783 35.7347 33.6421 35.8738 33.0857 36.152C32.5294 36.4302 32.0914 36.8119 31.7718 37.2972C31.4522 37.7826 31.2954 38.3419 31.3013 38.9751C31.2954 39.5848 31.4404 40.1174 31.7363 40.5732C32.0381 41.023 32.4672 41.3751 33.0236 41.6296C33.5799 41.8782 34.2369 42.0025 34.9945 42.0025ZM34.9945 33.5419C35.5981 33.5419 36.1338 33.4206 36.6013 33.1779C37.0689 32.9353 37.4359 32.5979 37.7022 32.1658C37.9744 31.7338 38.1135 31.2277 38.1195 30.6477C38.1135 30.0795 37.9774 29.5824 37.7111 29.1562C37.4507 28.7301 37.0867 28.4016 36.6191 28.1708C36.1515 27.9341 35.61 27.8157 34.9945 27.8157C34.3671 27.8157 33.8167 27.9341 33.3432 28.1708C32.8756 28.4016 32.5116 28.7301 32.2512 29.1562C31.9908 29.5824 31.8635 30.0795 31.8695 30.6477C31.8635 31.2277 31.9937 31.7338 32.2601 32.1658C32.5264 32.5979 32.8934 32.9353 33.3609 33.1779C33.8344 33.4206 34.3789 33.5419 34.9945 33.5419Z" fill="#6D7073"/>
<circle cx="35" cy="35" r="34" stroke="#6D7073" stroke-width="2"/>
</svg>
