<svg width="70" height="70" viewBox="0 0 70 70" fill="none" xmlns="http://www.w3.org/2000/svg">
<path d="M34.848 25.5696C35.6588 25.5755 36.4578 25.7235 37.245 26.0135C38.0322 26.3035 38.7424 26.777 39.3757 27.4339C40.0149 28.0909 40.5239 28.9787 40.9027 30.0973C41.2874 31.21 41.4827 32.5949 41.4886 34.2521C41.4886 35.8442 41.3288 37.2617 41.0092 38.5046C40.6896 39.7416 40.2309 40.7862 39.6331 41.6385C39.0413 42.4908 38.3222 43.1388 37.4758 43.5827C36.6295 44.0266 35.6766 44.2486 34.6171 44.2486C33.534 44.2486 32.5723 44.0355 31.7318 43.6094C30.8914 43.1832 30.2078 42.5943 29.6811 41.8427C29.1543 41.0851 28.8258 40.2151 28.6956 39.2326H31.4034C31.5809 40.0138 31.942 40.6471 32.4865 41.1325C33.0369 41.6119 33.7471 41.8516 34.6171 41.8516C35.9488 41.8516 36.9875 41.2715 37.7333 40.1115C38.479 38.9455 38.8548 37.3179 38.8608 35.2287H38.7187C38.4109 35.7377 38.0262 36.1757 37.5646 36.5426C37.1089 36.9096 36.5969 37.1937 36.0287 37.3949C35.4605 37.5961 34.8539 37.6967 34.2088 37.6967C33.1612 37.6967 32.2083 37.4393 31.3501 36.9244C30.4919 36.4094 29.8083 35.7022 29.2993 34.8026C28.7903 33.9029 28.5358 32.8761 28.5358 31.7219C28.5358 30.5737 28.7962 29.5321 29.3171 28.5969C29.8438 27.6618 30.5777 26.922 31.5188 26.3775C32.4657 25.8271 33.5755 25.5578 34.848 25.5696ZM34.8568 27.8778C34.1644 27.8778 33.54 28.0495 32.9836 28.3928C32.4332 28.7301 31.9982 29.1888 31.6786 29.7688C31.359 30.3429 31.1992 30.9821 31.1992 31.6864C31.1992 32.3907 31.3531 33.0299 31.6608 33.604C31.9745 34.1722 32.4006 34.625 32.9392 34.9624C33.4837 35.2938 34.1052 35.4595 34.8036 35.4595C35.3244 35.4595 35.8097 35.3589 36.2595 35.1577C36.7094 34.9564 37.1029 34.6783 37.4403 34.3232C37.7777 33.9621 38.041 33.5537 38.2304 33.098C38.4198 32.6423 38.5145 32.1629 38.5145 31.6598C38.5145 30.991 38.3547 30.3696 38.0351 29.7955C37.7214 29.2214 37.2894 28.7597 36.7389 28.4105C36.1885 28.0554 35.5612 27.8778 34.8568 27.8778Z" fill="#6D7073"/>
<circle cx="35" cy="35" r="34" stroke="#6D7073" stroke-width="2"/>
</svg>
