<svg width="70" height="70" viewBox="0 0 70 70" fill="none" xmlns="http://www.w3.org/2000/svg">
<path d="M35.5222 44.2486C34.303 44.2486 33.214 44.0385 32.2551 43.6183C31.3023 43.198 30.5476 42.6151 29.9913 41.8693C29.4409 41.1177 29.1449 40.2476 29.1035 39.2592H31.8912C31.9267 39.7978 32.1072 40.2654 32.4327 40.6619C32.7641 41.0526 33.1962 41.3544 33.7289 41.5675C34.2615 41.7805 34.8534 41.8871 35.5044 41.8871C36.2206 41.8871 36.8539 41.7628 37.4043 41.5142C37.9606 41.2656 38.3957 40.9194 38.7093 40.4755C39.023 40.0257 39.1799 39.5078 39.1799 38.9219C39.1799 38.3123 39.023 37.7766 38.7093 37.315C38.4016 36.8474 37.9488 36.4805 37.351 36.2141C36.7592 35.9478 36.043 35.8146 35.2026 35.8146H33.6667V33.5774H35.2026C35.8773 33.5774 36.4692 33.4561 36.9782 33.2134C37.4931 32.9708 37.8955 32.6334 38.1855 32.2013C38.4756 31.7634 38.6206 31.2514 38.6206 30.6655C38.6206 30.1032 38.4933 29.6149 38.2388 29.2006C37.9902 28.7804 37.6351 28.4519 37.1735 28.2152C36.7177 27.9785 36.1792 27.8601 35.5577 27.8601C34.9658 27.8601 34.4125 27.9696 33.8975 28.1886C33.3886 28.4016 32.9743 28.7094 32.6547 29.1119C32.335 29.5084 32.1634 29.9848 32.1397 30.5412H29.4853C29.5149 29.5587 29.8049 28.6946 30.3553 27.9489C30.9116 27.2031 31.6455 26.6201 32.557 26.1999C33.4685 25.7797 34.4805 25.5696 35.5932 25.5696C36.7592 25.5696 37.7653 25.7975 38.6117 26.2532C39.464 26.703 40.1209 27.3037 40.5826 28.0554C41.0501 28.8071 41.281 29.6297 41.275 30.5234C41.281 31.5414 40.9969 32.4055 40.4228 33.1158C39.8546 33.826 39.097 34.3024 38.15 34.5451V34.6871C39.3574 34.8706 40.2926 35.35 40.9554 36.1254C41.6242 36.9007 41.9557 37.8625 41.9498 39.0107C41.9557 40.0109 41.6775 40.9076 41.1152 41.7006C40.5589 42.4937 39.7984 43.1181 38.8336 43.5739C37.8689 44.0237 36.7651 44.2486 35.5222 44.2486Z" fill="#6D7073"/>
<circle cx="35" cy="35" r="34" stroke="#6D7073" stroke-width="2"/>
</svg>
